<svg width="32" height="32" viewBox="0 0 32 32" fill="none" xmlns="http://www.w3.org/2000/svg">
<g id="Cart Copy">
<path id="Shape" fill-rule="evenodd" clip-rule="evenodd" d="M21.8186 12.489C21.4204 12.8875 20.8909 13.1067 20.3274 13.1067C19.7642 13.1067 19.2346 12.8875 18.8364 12.489C18.438 12.0908 18.2188 11.5613 18.2188 10.998C18.2188 10.4348 18.438 9.90527 18.8364 9.50684C19.6584 8.68481 20.9963 8.68481 21.8186 9.50684C22.2168 9.90527 22.4363 10.4348 22.4363 10.998C22.4363 11.5613 22.2168 12.0908 21.8186 12.489ZM20.3274 10.1396C20.1077 10.1396 19.8877 10.2234 19.7202 10.3909C19.5581 10.553 19.4688 10.7686 19.4688 10.998C19.4688 11.2273 19.5581 11.4431 19.7202 11.6052C19.8826 11.7673 20.0981 11.8567 20.3274 11.8567C20.5569 11.8567 20.7725 11.7673 20.9346 11.6052C21.0969 11.4431 21.1863 11.2273 21.1863 10.998C21.1863 10.7686 21.0969 10.553 20.9346 10.3909C20.7673 10.2234 20.5474 10.1396 20.3274 10.1396Z" fill="black"/>
<path id="Shape_2" fill-rule="evenodd" clip-rule="evenodd" d="M20.7397 17.1995C20.3691 17.5701 19.882 17.7556 19.395 17.7556C18.9081 17.7556 18.4211 17.5701 18.0505 17.1995C17.309 16.458 17.309 15.2517 18.0505 14.5103C18.7919 13.769 19.9982 13.769 20.7397 14.5103C21.4811 15.2517 21.4811 16.458 20.7397 17.1995ZM19.3952 15.2036C19.2282 15.2036 19.0615 15.2671 18.9343 15.394C18.6804 15.6482 18.6804 16.0615 18.9343 16.3157C19.1884 16.5696 19.602 16.5698 19.8559 16.3157C20.11 16.0615 20.11 15.6482 19.8559 15.394C19.7289 15.2671 19.562 15.2036 19.3952 15.2036Z" fill="black"/>
<path id="Shape_3" fill-rule="evenodd" clip-rule="evenodd" d="M16.1243 13.479H15.2546C14.5769 13.479 14.0254 12.9277 14.0254 12.2498V11.3804C14.0254 10.7024 14.5769 10.1511 15.2546 10.1511H16.1243C16.8022 10.1511 17.3535 10.7024 17.3535 11.3804V12.2498C17.3535 12.9277 16.802 13.479 16.1243 13.479ZM16.1035 11.4011H15.2754V12.229H16.1035V11.4011Z" fill="black"/>
<path id="Shape_4" fill-rule="evenodd" clip-rule="evenodd" d="M31.8982 27.0339C31.8984 27.0339 31.8984 27.0339 31.8987 27.0337L27.9897 21.0337C27.8745 20.8569 27.6775 20.75 27.4661 20.75H22.3062L25.676 8.17383C25.8745 7.43262 25.6692 6.66602 25.1265 6.12329C24.584 5.58057 23.8176 5.37524 23.0759 5.57397L8.29004 9.53589C7.50537 9.74609 6.85718 10.2883 6.51196 11.0234C6.1665 11.7588 6.16284 12.6038 6.50195 13.342C7.79956 16.1655 9.64185 18.6785 11.8975 20.75H5.09131V3.75H26.8413V16.375C26.8413 16.7202 27.1211 17 27.4663 17C27.8113 17 28.0913 16.7202 28.0913 16.375V3.38379L29.0007 2.47461C29.1179 2.35718 29.1836 2.19824 29.1836 2.03247V0.625C29.1836 0.279785 28.9038 0 28.5586 0H3.37378C3.02856 0 2.74878 0.279785 2.74878 0.625V2.03247C2.74878 2.19824 2.8147 2.35718 2.93188 2.47461L3.84131 3.38403V21.1921L0.0986328 27.0381H0.0991211C0.0366211 27.1355 0 27.251 0 27.375V31.375C0 31.7202 0.279785 32 0.625 32H31.375C31.7202 32 32 31.7202 32 31.375V27.375C32 27.249 31.9624 27.1321 31.8982 27.0339ZM23.3997 6.78125C23.4761 6.76074 23.5532 6.75073 23.6296 6.75073C23.8569 6.75073 24.0757 6.84009 24.2429 7.00732C24.4658 7.23047 24.5503 7.54565 24.4688 7.85034L20.9058 21.1472C20.512 20.814 20.0027 20.6125 19.447 20.6125H19.2437C18.5752 20.6125 18.0315 20.072 18.0315 19.408C18.0315 18.0544 16.927 16.9534 15.5693 16.9534C14.9009 16.9534 14.3569 16.4128 14.3569 15.7485C14.3569 14.395 13.2524 13.2939 11.8948 13.2939C11.2263 13.2939 10.6826 12.7537 10.6826 12.0894C10.6826 11.4236 10.415 10.8193 9.98193 10.3767L23.3997 6.78125ZM7.64355 11.5549C7.45508 11.9563 7.45312 12.4172 7.63818 12.8201C9.8291 17.5884 13.6616 21.4209 18.4297 23.6116C18.8325 23.7969 19.2937 23.7949 19.6948 23.6064C20.0437 23.4426 20.3127 23.1538 20.4524 22.7996C20.4185 22.2773 19.981 21.8623 19.4468 21.8623H19.2434C17.8857 21.8623 16.7812 20.7612 16.7812 19.4077C16.7812 18.7434 16.2373 18.2031 15.5688 18.2031C14.2112 18.2031 13.1067 17.1021 13.1067 15.7485C13.1067 15.0842 12.563 14.5437 11.8945 14.5437C10.5369 14.5437 9.43213 13.4426 9.43213 12.0891C9.43213 11.4395 8.91187 10.9099 8.26367 10.8867C7.99512 11.0381 7.77734 11.2698 7.64355 11.5549ZM3.99878 1.25H27.9336V1.77368L27.2073 2.5H4.7251L3.99878 1.77368V1.25ZM2.625 25.5C2.6062 25.5 2.58765 25.4988 2.56934 25.4971L1.76733 26.75H30.2219L27.1274 22H21.9714L21.7141 22.9597C21.5039 23.7444 20.9617 24.3926 20.2266 24.7378C19.8552 24.9124 19.4561 24.9995 19.0566 24.9995C18.6653 24.9995 18.2737 24.9158 17.9082 24.7478C16.2878 24.0032 14.7705 23.0784 13.3794 22H4.80811L3.36768 24.25H11.3149C11.6602 24.25 11.9399 24.5298 11.9399 24.875C11.9399 25.2202 11.6602 25.5 11.3149 25.5H2.625ZM17.0078 28C16.7981 28.3369 16.4253 28.5625 16 28.5625C15.5747 28.5625 15.2019 28.3369 14.9922 28H17.0078ZM1.25 28V30.75H30.75V28H18.356C18.0791 29.0422 17.1282 29.8125 16 29.8125C14.8718 29.8125 13.9207 29.0422 13.644 28H1.25Z" fill="black"/>
<path id="Path" d="M14.4399 24.875C14.4399 24.7107 14.373 24.5493 14.2568 24.4331C14.1406 24.3169 13.9795 24.25 13.8149 24.25C13.6506 24.25 13.4893 24.3169 13.373 24.4331C13.2568 24.5493 13.1899 24.7107 13.1899 24.875C13.1899 25.0393 13.2568 25.2007 13.373 25.3169C13.4893 25.4331 13.6506 25.5 13.8149 25.5C13.9795 25.5 14.1406 25.4331 14.2568 25.3169C14.373 25.2007 14.4399 25.0393 14.4399 24.875Z" fill="black"/>
<path id="Path_2" d="M27.4663 18.25C27.3018 18.25 27.1406 18.3169 27.0244 18.4331C26.9082 18.5493 26.8413 18.7107 26.8413 18.875C26.8413 19.0393 26.9082 19.2007 27.0244 19.3169C27.1406 19.4331 27.3018 19.5 27.4663 19.5C27.6306 19.5 27.792 19.4331 27.9082 19.3169C28.0244 19.2007 28.0913 19.0393 28.0913 18.875C28.0913 18.7107 28.0244 18.5493 27.9082 18.4331C27.792 18.3169 27.6306 18.25 27.4663 18.25Z" fill="black"/>
</g>
</svg>
