<svg width="85" height="40" viewBox="0 0 85 40" fill="currentColor" xmlns="http://www.w3.org/2000/svg">
<g id="Logo">
<g id="Group">
<path id="PIZZA" fill-rule="evenodd" clip-rule="evenodd" d="M39.3726 19.956C39.4481 20.3585 39.8254 20.6352 40.2279 20.5597C40.6304 20.4843 40.9071 20.1069 40.8316 19.7045C40.7058 18.8995 40.6555 17.8178 40.6807 16.9877C40.7058 16.5601 40.7058 16.057 40.6807 15.4784C40.5549 10.9505 40.3285 7.55451 40.0015 5.3157C39.6745 3.00142 38.618 1.19025 36.2282 1.41665C35.1465 1.51727 34.7189 1.71851 34.4422 2.9008C34.2714 3.6082 34.2899 4.43386 34.3141 5.51541V5.51545L34.3164 5.61756C34.3416 6.19613 34.3416 6.49799 34.3416 6.5483C34.3416 8.50494 34.4147 10.5347 34.513 13.2619L34.5177 13.3905L34.6183 16.5098C34.6937 17.5914 34.6937 18.7737 34.4925 19.6541C34.3919 20.0566 34.6183 20.434 35.0208 20.5346C35.4232 20.6352 35.8006 20.4088 35.9012 20.0063C36.1779 18.9246 36.1527 17.3902 36.0773 16.4594C36.0521 16.1827 36.0018 14.6986 35.9263 12.0573C36.0018 12.0824 36.0521 12.0824 36.1276 12.0824C36.3791 12.0824 36.9326 12.1076 37.7878 12.1579C38.3664 12.1831 38.794 12.2082 39.1211 12.2334C39.1277 12.4405 39.1362 12.6707 39.1455 12.9235L39.1455 12.9249C39.1712 13.6236 39.2032 14.4949 39.2217 15.5287C39.2468 16.1073 39.2468 16.5852 39.2217 16.9374C39.1965 17.8178 39.2468 19.0504 39.3726 19.956ZM1.56438 20.7861C1.96686 20.8113 2.31904 20.5094 2.34419 20.1069C2.52028 18.0694 2.54543 15.7551 2.46997 13.1641C4.33145 12.6359 5.48859 11.7554 5.96654 10.5228C6.39418 9.31537 6.29355 7.02625 5.68983 5.13961C5.01064 2.92596 3.65226 1.24056 1.71531 1.71851C1.08643 1.84429 0.683951 2.09584 0.482709 2.44801C0.407244 2.54863 0.382089 2.67441 0.382089 2.80018C0.356934 2.85049 0.356934 2.92596 0.356934 3.00142V3.47937C0.381462 4.14164 0.40599 4.44514 0.593765 6.76864L0.608485 6.95079C1.03612 12.5855 1.13674 16.9374 0.885192 20.0063C0.860037 20.4088 1.1619 20.761 1.56438 20.7861ZM2.3945 11.6548C2.31904 10.3467 2.21842 8.7368 2.06749 6.85017C1.86624 4.63651 1.84109 4.05794 1.81593 3.42906V3.17751L2.01717 3.1272C2.46997 3.02658 2.89761 3.17751 3.27493 3.57999C4.0799 4.46042 4.65847 6.37222 4.75909 8.15823C4.85971 9.96941 4.8094 10.875 2.3945 11.6548ZM11.2491 20.5346C10.1675 20.6604 9.28702 20.7107 8.60783 20.6855C8.20535 20.6855 7.90349 20.3333 7.90349 19.9309C7.90349 19.5284 8.25566 19.2265 8.65814 19.2265C9.21155 19.2517 9.89074 19.2014 10.6706 19.1259C10.6631 19.0289 10.6556 18.912 10.6469 18.7744C10.626 18.4484 10.5979 18.0067 10.5448 17.4405C10.3516 15.2188 10.3207 13.994 10.3185 11.6072L10.3188 10.3121C10.32 9.29336 10.3247 8.18968 10.3435 7.0011C10.3687 5.41632 10.3687 4.20887 10.3687 3.3536V3.30329H8.85938C8.4569 3.30329 8.12988 2.97627 8.12988 2.57379C8.12988 2.1713 8.4569 1.84429 8.85938 1.84429L10.7591 1.84383C12.3217 1.84254 13.2933 1.83767 13.664 1.81913C14.0665 1.81913 14.4187 2.12099 14.4187 2.52348C14.4187 2.92596 14.1168 3.27813 13.7143 3.27813C13.1609 3.30329 12.532 3.30329 11.8277 3.30329V9.13929C11.7774 12.988 11.7774 14.8998 11.8277 14.8998C11.8528 15.3778 11.9032 16.1827 12.0038 17.3147C12.0686 17.898 12.0963 18.3885 12.1188 18.7862L12.1188 18.7863L12.1296 18.975C13.01 18.8743 13.7395 18.824 14.3181 18.824C14.7205 18.824 15.0476 19.151 15.0476 19.5535C15.0476 19.956 14.7205 20.283 14.3181 20.283C13.7395 20.283 12.8842 20.3585 11.7522 20.4843C11.6516 20.5346 11.551 20.5597 11.4252 20.5597C11.3749 20.5597 11.3246 20.5597 11.2491 20.5346ZM18.6951 20.7358C19.5 20.8113 21.764 20.7861 22.7702 20.6855C23.1727 20.6604 23.4494 20.283 23.4242 19.8805C23.3991 19.4781 23.0217 19.2014 22.6193 19.2265C21.7137 19.3271 19.5 19.3523 18.7957 19.2768H18.7202L18.9466 18.0945C18.9946 17.9184 19.0325 17.7422 19.0731 17.5531L19.0732 17.553L19.0732 17.5529L19.0732 17.5526L19.0734 17.5518L19.0734 17.5517C19.0965 17.4442 19.1205 17.3324 19.1478 17.2141C19.174 17.1094 19.1971 17.0078 19.2194 16.9103C19.2612 16.7264 19.2998 16.557 19.3491 16.4091C19.3994 16.1827 19.4246 16.057 19.4246 16.0066C20.1037 12.988 21.0848 9.39084 22.418 5.18992C22.418 5.16477 22.5438 4.88806 22.8205 4.33465C23.0469 3.80639 23.1224 3.3536 23.0469 2.95111C22.8708 1.91975 22.0407 1.76882 21.1351 1.76882C20.9087 1.76882 20.5062 1.76882 19.9277 1.79398C19.6638 1.79971 19.4249 1.80545 19.2107 1.81059C18.4857 1.82799 18.0454 1.83855 17.8901 1.81913C17.6888 1.79398 17.5128 1.84429 17.3618 1.97006C17.1857 2.09584 17.1103 2.27192 17.0851 2.47317C17.06 2.87565 17.3367 3.25298 17.7392 3.27813C17.9552 3.29777 18.4473 3.28674 19.2393 3.26899C19.4617 3.26401 19.7078 3.25849 19.978 3.25298C20.6068 3.22782 20.9842 3.22782 21.1351 3.22782H21.4873C21.5124 3.20267 21.5124 3.20267 21.5376 3.20267C21.5627 3.20267 21.5879 3.20267 21.5627 3.22782C21.5775 3.22045 21.5901 3.21309 21.6005 3.20698C21.6256 3.19225 21.6382 3.18488 21.6382 3.20267C21.6634 3.32844 21.6131 3.47937 21.4873 3.70577C21.3186 4.08913 21.1873 4.36032 21.1048 4.53073C21.052 4.63987 21.0192 4.70767 21.0093 4.73713C19.6761 8.98836 18.6699 12.6359 18.0159 15.7048C17.9937 15.727 17.9715 15.8276 17.932 16.0066L17.9319 16.0066L17.9152 16.0821L17.714 16.9122C17.6385 17.2392 17.5882 17.5159 17.5379 17.7926L17.5379 17.7926L17.5379 17.7927L17.5379 17.7927C17.4121 18.3461 17.3115 18.7989 17.2612 19.1259L17.2503 19.2122C17.2293 19.3774 17.2109 19.5216 17.2109 19.629V19.8805C17.2864 20.283 17.5128 20.5094 17.8398 20.61L18.0913 20.6855C18.2674 20.7107 18.4687 20.7358 18.6951 20.7358ZM31.1469 20.6855C30.1407 20.7861 27.8767 20.8113 27.0717 20.7358C26.8453 20.7358 26.6441 20.7107 26.468 20.6855L26.2165 20.61C25.8894 20.5094 25.663 20.283 25.5876 19.8805V19.629C25.5876 19.5216 25.6059 19.3774 25.627 19.2122L25.6379 19.1259C25.6882 18.7989 25.7888 18.3461 25.9146 17.7927L25.9146 17.7927L25.9146 17.7926L25.9146 17.7926C25.9649 17.5159 26.0152 17.2392 26.0907 16.9122L26.2919 16.0821L26.3086 16.0066L26.3086 16.0066C26.3481 15.8276 26.3703 15.727 26.3925 15.7048C27.0466 12.6359 28.0528 8.98836 29.386 4.73713C29.3958 4.70767 29.4286 4.63987 29.4815 4.53073C29.564 4.36032 29.6953 4.08913 29.864 3.70577C29.9897 3.47937 30.04 3.32844 30.0149 3.20267C30.0149 3.18488 30.0023 3.19225 29.9771 3.20698C29.9667 3.21309 29.9542 3.22045 29.9394 3.22782C29.9646 3.20267 29.9394 3.20267 29.9143 3.20267C29.8891 3.20267 29.8891 3.20267 29.864 3.22782H29.5118C29.3608 3.22782 28.9835 3.22782 28.3546 3.25298C28.0844 3.25849 27.8384 3.26401 27.616 3.26899C26.824 3.28674 26.3319 3.29777 26.1158 3.27813C25.7133 3.25298 25.4366 2.87565 25.4618 2.47317C25.487 2.27192 25.5624 2.09584 25.7385 1.97006C25.8894 1.84429 26.0655 1.79398 26.2668 1.81913C26.4221 1.83855 26.8623 1.82799 27.5874 1.81059C27.8015 1.80545 28.0405 1.79971 28.3043 1.79398C28.8829 1.76882 29.2854 1.76882 29.5118 1.76882C30.4174 1.76882 31.2475 1.91975 31.4236 2.95111C31.499 3.3536 31.4236 3.80639 31.1972 4.33465C30.9205 4.88806 30.7947 5.16477 30.7947 5.18992C29.4615 9.39084 28.4804 12.988 27.8012 16.0066C27.8012 16.057 27.7761 16.1827 27.7258 16.4091C27.6765 16.557 27.6379 16.7264 27.596 16.9103C27.5738 17.0078 27.5507 17.1094 27.5245 17.2141C27.4972 17.3324 27.4732 17.4442 27.4501 17.5518L27.4499 17.5526L27.4498 17.5529L27.4498 17.553L27.4498 17.5531C27.4092 17.7422 27.3713 17.9184 27.3233 18.0945L27.0969 19.2768H27.1723C27.8767 19.3523 30.0903 19.3271 30.9959 19.2265C31.3984 19.2014 31.7757 19.4781 31.8009 19.8805C31.8261 20.283 31.5493 20.6604 31.1469 20.6855ZM38.4751 10.7392C38.7211 10.755 38.9235 10.7679 39.0456 10.7744C38.945 8.83742 38.7689 7.10172 38.5425 5.51694C38.2658 3.70577 37.6621 2.74987 36.3791 2.87565C36.1527 2.9008 36.027 2.9008 35.9767 2.9008C35.9263 2.97627 35.876 3.07689 35.8509 3.22782C35.7503 3.75608 35.7503 4.38496 35.7754 5.56725C35.8006 6.14582 35.8006 6.47284 35.8006 6.5483C35.8006 7.7306 35.8257 9.08898 35.876 10.6738C35.9515 10.6486 36.0521 10.6234 36.1276 10.6234C36.6708 10.6234 37.7579 10.6932 38.4751 10.7392Z" fill="black"/>
<path id="MENU" fill-rule="evenodd" clip-rule="evenodd" d="M4.36023 38.6882C4.29812 38.7566 4.16147 38.7907 3.95029 38.7907C3.85092 38.7907 3.63352 38.7783 3.29812 38.7534C2.96272 38.7286 2.60868 38.7162 2.23602 38.7162C1.78881 38.7162 1.4472 38.7255 1.21117 38.7441C0.975151 38.7628 0.720494 38.7783 0.447203 38.7907C0.347825 38.7907 0.248446 38.7659 0.149068 38.7162C0.0496892 38.6665 0 38.5609 0 38.3994C0 38.3125 0.0248446 38.1944 0.0745338 38.0454C0.248446 37.4988 0.354036 37.151 0.391303 37.0019C0.42857 36.8528 0.459625 36.4553 0.48447 35.8094C0.509315 35.1634 0.521737 34.6851 0.521737 34.3746V29.1945C0.521737 28.797 0.51242 28.415 0.493787 28.0485C0.475153 27.6821 0.440992 27.3932 0.391303 27.1821C0.341613 26.9709 0.285713 26.769 0.223602 26.5765C0.16149 26.3839 0.130434 26.238 0.130434 26.1386C0.130434 25.9895 0.186335 25.887 0.298135 25.8311C0.409936 25.7752 0.521737 25.7473 0.633538 25.7473C0.956518 25.7473 1.2236 25.7628 1.43478 25.7939C1.64596 25.8249 1.90061 25.8405 2.19875 25.8405C2.60868 25.8405 2.89129 25.8249 3.04657 25.7939C3.20185 25.7628 3.35402 25.7473 3.50309 25.7473C3.76396 25.7473 3.96893 25.9212 4.11799 26.269C4.2298 26.5423 4.3416 26.8094 4.4534 27.0703C4.66458 27.5423 4.83849 27.8777 4.97513 28.0765C5.21116 28.4367 5.4596 28.6168 5.72047 28.6168C5.85712 28.6168 6.00619 28.5361 6.16768 28.3746C6.37885 28.1634 6.64593 27.7845 6.96891 27.238C7.37885 26.5423 7.64904 26.12 7.77947 25.9709C7.9099 25.8218 8.08071 25.7473 8.29189 25.7473C8.51549 25.7473 8.69562 25.7597 8.83226 25.7846C8.96891 25.8094 9.18009 25.8218 9.4658 25.8218C9.85089 25.8218 10.1521 25.8156 10.3695 25.8032C10.5869 25.7908 10.8074 25.7721 11.031 25.7473C11.1925 25.7473 11.3105 25.7783 11.385 25.8405C11.4596 25.9026 11.4968 25.9957 11.4968 26.12C11.4968 26.4802 11.4223 26.8529 11.2732 27.238C11.1242 27.6231 11.0496 28.2318 11.0496 29.064V34.71C11.0496 35.5299 11.1242 36.2938 11.2732 37.0019C11.3229 37.2255 11.3819 37.4864 11.4503 37.7845C11.5186 38.0826 11.5527 38.2938 11.5527 38.418C11.5527 38.5298 11.5248 38.6199 11.4689 38.6882C11.413 38.7566 11.2981 38.7907 11.1242 38.7907C11 38.7907 10.7639 38.7783 10.4161 38.7534C10.0683 38.7286 9.69561 38.7162 9.2981 38.7162C8.88816 38.7162 8.56518 38.7286 8.32916 38.7534C8.09313 38.7783 7.8509 38.7907 7.60245 38.7907C7.27947 38.7907 7.11798 38.6851 7.11798 38.4739C7.27947 37.9646 7.41612 37.446 7.52792 36.9181C7.63972 36.3901 7.69562 35.7659 7.69562 35.0454V31.6168C7.69562 31.3808 7.63351 31.2628 7.50928 31.2628C7.44717 31.2628 7.3478 31.3529 7.21115 31.533C7.0745 31.7131 6.96891 31.8466 6.89438 31.9336L6.40991 32.6417C6.21115 32.8777 5.99997 32.9957 5.77637 32.9957C5.55277 32.9957 5.36333 32.9305 5.20805 32.8001C5.05277 32.6696 4.83849 32.3622 4.5652 31.8777C4.49066 31.7535 4.40992 31.6199 4.32296 31.4771C4.23601 31.3342 4.14284 31.2628 4.04346 31.2628C3.96893 31.2628 3.92234 31.2907 3.90371 31.3466C3.88508 31.4025 3.87576 31.4802 3.87576 31.5796V35.0081C3.87576 35.6913 3.93166 36.3 4.04346 36.8342C4.08073 37.033 4.18011 37.3684 4.3416 37.8404C4.41613 38.0889 4.4534 38.2814 4.4534 38.418C4.4534 38.5298 4.42234 38.6199 4.36023 38.6882ZM20.5248 38.6789C20.3322 38.7534 20.0682 38.7907 19.7328 38.7907L17.4968 38.7348L15.2608 38.6975C14.5279 38.6975 13.9875 38.7131 13.6397 38.7441C13.2919 38.7752 13.0496 38.7907 12.913 38.7907C12.7639 38.7907 12.6242 38.7659 12.4937 38.7162C12.3633 38.6665 12.2981 38.5795 12.2981 38.4553C12.2981 38.0951 12.354 37.8094 12.4658 37.5982C12.7142 37.1261 12.8385 36.3187 12.8385 35.1758V29.1945C12.8385 28.4367 12.795 27.8591 12.708 27.4616C12.5962 27.0516 12.4844 26.6355 12.3726 26.2131C12.3726 26.0641 12.4347 25.9492 12.559 25.8684C12.6832 25.7877 12.8819 25.7473 13.1552 25.7473L14.4968 25.8032C14.708 25.8032 15.0372 25.8094 15.4844 25.8218C15.8819 25.8329 16.1911 25.839 16.4119 25.8402L17.8881 25.8405C18.2856 25.8405 18.6894 25.8218 19.0993 25.7846L19.8819 25.7473C20.0558 25.7473 20.1956 25.7846 20.3012 25.8591C20.4067 25.9336 20.4595 26.0765 20.4595 26.2877C20.4595 26.4492 20.4471 26.6728 20.4223 26.9585C20.3974 27.2442 20.385 27.5299 20.385 27.8156C20.385 27.9026 20.3912 28.0019 20.4036 28.1137C20.4161 28.2255 20.4378 28.3591 20.4689 28.5144C20.4999 28.6696 20.5279 28.8063 20.5527 28.9243C20.5776 29.0423 20.59 29.151 20.59 29.2504C20.59 29.6355 20.3912 29.828 19.9937 29.828C19.8198 29.828 19.6459 29.7783 19.472 29.679C19.2732 29.5423 19.1304 29.4429 19.0434 29.3808C18.5838 29.0703 18.0807 28.915 17.5341 28.915C17.0869 28.915 16.7515 29.0019 16.5279 29.1758C16.3043 29.3498 16.1925 29.5609 16.1925 29.8094C16.1925 30.0951 16.3229 30.2939 16.5838 30.4057C16.8446 30.5175 17.2049 30.5734 17.6645 30.5734C17.8509 30.5734 18.1645 30.5609 18.6055 30.5361C19.0465 30.5112 19.2794 30.4988 19.3043 30.4988C19.739 30.4988 20.0962 30.5516 20.3757 30.6572C20.6552 30.7628 20.7949 30.9709 20.7949 31.2814C20.7949 31.4926 20.6862 31.6758 20.4689 31.8311C20.2515 31.9864 19.8819 32.064 19.3602 32.064H16.9564C16.6956 32.064 16.503 32.1137 16.3788 32.2131C16.2546 32.3125 16.1925 32.5174 16.1925 32.828V35.6603C16.1925 36.0578 16.3043 36.3249 16.5279 36.4615C16.6769 36.5485 16.9068 36.592 17.2173 36.592H17.4596C17.8819 36.592 18.2142 36.5733 18.4564 36.5361C18.6987 36.4988 18.9937 36.3932 19.3415 36.2193C19.4906 36.1448 19.6397 36.064 19.7887 35.9771C20.0496 35.8156 20.2608 35.7348 20.4223 35.7348C20.5962 35.7348 20.7142 35.7814 20.7763 35.8746C20.8384 35.9677 20.8695 36.064 20.8695 36.1634C20.8695 36.2876 20.8539 36.4367 20.8229 36.6106C20.7918 36.7845 20.7763 37.0019 20.7763 37.2628L20.8136 38.1944C20.8136 38.4429 20.7173 38.6044 20.5248 38.6789ZM22.472 38.7907C22.5589 38.7907 22.7732 38.7814 23.1148 38.7628C23.4564 38.7441 23.8322 38.7348 24.2421 38.7348C24.5775 38.7348 24.8757 38.7441 25.1365 38.7628C25.3974 38.7814 25.6707 38.7907 25.9564 38.7907C26.0682 38.7907 26.1707 38.769 26.2639 38.7255C26.357 38.682 26.4036 38.5982 26.4036 38.4739C26.267 38.1013 26.1303 37.7224 25.9937 37.3373C25.8695 36.9149 25.8073 36.4243 25.8073 35.8653V31.7286C25.8073 31.4926 25.8291 31.328 25.8726 31.2348C25.916 31.1417 25.9688 31.0951 26.0309 31.0951C26.3291 31.0951 26.7452 31.4491 27.2794 32.1572C27.8632 32.9274 28.1552 33.6417 28.1552 34.3001V36.0889C28.1552 36.9212 28.0868 37.4491 27.9502 37.6727C27.8135 37.8963 27.7452 38.1385 27.7452 38.3994C27.7452 38.5485 27.8198 38.6603 27.9688 38.7348C28.0558 38.7721 28.1552 38.7907 28.267 38.7907C28.5403 38.7783 28.8042 38.7628 29.0589 38.7441C29.3135 38.7255 29.5899 38.7162 29.8881 38.7162C30.0496 38.7162 30.298 38.7286 30.6334 38.7534C30.9688 38.7783 31.2545 38.7907 31.4905 38.7907C31.6024 38.7907 31.7017 38.7721 31.7887 38.7348C31.8756 38.6975 31.9191 38.6106 31.9191 38.4739L31.621 37.3187C31.5464 36.9212 31.5092 36.3808 31.5092 35.6976V29.2131C31.5092 28.505 31.5527 27.9026 31.6396 27.4057C31.7266 26.9088 31.826 26.4616 31.9378 26.0641C31.9378 25.8529 31.7887 25.7473 31.4905 25.7473C31.1427 25.7473 30.8787 25.7566 30.6986 25.7752C30.5185 25.7939 30.18 25.8032 29.6831 25.8032L27.8757 25.7473C27.6396 25.7473 27.4906 25.7783 27.4285 25.8405C27.3663 25.9026 27.3353 25.9771 27.3353 26.0641C27.3353 26.1137 27.3726 26.1821 27.4471 26.269C27.5713 26.4057 27.6738 26.5361 27.7545 26.6603C27.8353 26.7846 27.9129 26.9616 27.9875 27.1914C28.062 27.4212 28.0993 27.6541 28.0993 27.8901V28.1883C28.0993 28.2504 28.0682 28.3001 28.0061 28.3373C27.9937 28.3373 27.9688 28.3436 27.9316 28.356C27.857 28.356 27.7204 28.2442 27.5216 28.0206C27.1862 27.6479 26.8508 27.3063 26.5154 26.9957C26.1055 26.5982 25.7639 26.3063 25.4906 26.12C25.1303 25.8715 24.8136 25.7473 24.5403 25.7473L23.9813 25.7846L23.3477 25.8032L22.5465 25.7846L22.0434 25.7473C21.7701 25.7473 21.6334 25.8777 21.6334 26.1386C21.6334 26.2877 21.6645 26.4181 21.7266 26.5299C22.0123 27.0641 22.1862 27.4491 22.2484 27.6852C22.385 28.1696 22.4533 28.8715 22.4533 29.7908V36.1261C22.4533 36.4864 22.4285 36.7783 22.3788 37.0019C22.3291 37.2255 22.2484 37.474 22.1366 37.7472C21.9875 38.1448 21.9129 38.3746 21.9129 38.4367C21.9129 38.5982 21.972 38.6975 22.09 38.7348C22.208 38.7721 22.3353 38.7907 22.472 38.7907ZM40.3508 38.092C39.6365 38.6572 38.5775 38.9398 37.1738 38.9398C35.5464 38.9398 34.4098 38.5795 33.7638 37.859C33.3042 37.3497 33.0744 36.623 33.0744 35.6789V28.8591C33.0744 28.6231 33.062 28.3063 33.0371 27.9088C33.0123 27.5113 32.9812 27.2442 32.944 27.1075C32.9067 26.9709 32.8539 26.7908 32.7856 26.5672C32.7173 26.3436 32.6831 26.1697 32.6831 26.0454C32.6831 25.8467 32.8073 25.7473 33.0558 25.7473C33.2173 25.7473 33.4533 25.7566 33.7638 25.7752C34.0399 25.7918 34.3895 25.801 34.8128 25.8028L34.975 25.8032C35.3849 25.8032 35.6955 25.7939 35.9067 25.7752C36.1179 25.7566 36.3601 25.7473 36.6334 25.7473C36.8694 25.7473 36.9874 25.8467 36.9874 26.0454C36.9874 26.0827 36.9657 26.1634 36.9222 26.2877C36.8787 26.4119 36.8352 26.5547 36.7918 26.7162C36.7483 26.8777 36.7141 27.033 36.6893 27.1821C36.5899 27.6293 36.5216 27.9616 36.4843 28.179C36.447 28.3963 36.4284 28.71 36.4284 29.1199V34.9895C36.4284 35.3497 36.4843 35.6199 36.5961 35.8C36.7079 35.9802 36.9191 36.0702 37.2297 36.0702C37.6023 36.0702 37.8508 35.9274 37.975 35.6417C38.0371 35.4926 38.0682 35.2876 38.0682 35.0268V28.505C38.0682 28.1324 38.0588 27.8467 38.0402 27.6479C38.0216 27.4491 37.975 27.2318 37.9005 26.9957C37.8135 26.7846 37.7514 26.6293 37.7141 26.5299C37.6396 26.3436 37.6023 26.1945 37.6023 26.0827C37.6023 25.9709 37.6303 25.887 37.6862 25.8311C37.7421 25.7752 37.8446 25.7473 37.9936 25.7473C38.3166 25.7473 38.6116 25.7535 38.8787 25.7659C39.1458 25.7783 39.4036 25.7908 39.652 25.8032L39.9195 25.8028C40.3852 25.8011 40.7153 25.7951 40.9098 25.7846C41.1396 25.7721 41.3601 25.7597 41.5713 25.7473C41.8197 25.7473 41.9439 25.8467 41.9439 26.0454C41.9439 26.269 41.8942 26.5113 41.7949 26.7721C41.5464 27.4305 41.4222 28.2628 41.4222 29.269V35.4926C41.4222 36.6603 41.065 37.5267 40.3508 38.092Z" fill="black"/>
</g>
<g id="003-pizza-slice">
<path id="Path" d="M62.8381 10.2854C62.8381 9.96191 62.7506 9.65983 62.6239 9.37294C61.1391 9.5524 59.6638 9.82917 58.2767 10.194C58.2755 10.2253 58.2668 10.2542 58.2668 10.2854C58.2668 11.5455 59.2924 12.5711 60.5525 12.5711C61.8123 12.5711 62.8381 11.5455 62.8381 10.2854Z" fill="black"/>
<path id="Shape" fill-rule="evenodd" clip-rule="evenodd" d="M81.1222 12.3624C80.2303 12.3624 79.3723 12.1604 78.572 11.7607C77.9414 11.4458 77.2328 11.1601 76.4905 10.8928C76.2021 12.4934 74.8061 13.7139 73.1237 13.7139C71.2329 13.7139 69.6952 12.1758 69.6952 10.2854V9.34437C68.5411 9.21282 67.3851 9.13931 66.2655 9.13931C65.8394 9.13931 65.4051 9.15717 64.9706 9.17681C65.0617 9.539 65.1239 9.90893 65.1239 10.2854C65.1239 12.8068 63.0737 14.8567 60.5526 14.8567C58.239 14.8567 56.3429 13.1246 56.0426 10.8922C55.3019 11.1592 54.5947 11.4443 53.9656 11.7586C53.1978 12.1425 52.3305 12.347 51.4579 12.347C51.4294 12.347 51.402 12.3413 51.3745 12.3356C51.3489 12.3303 51.3232 12.3251 51.2966 12.3243L53.6957 16.7775V28.5706C53.6957 30.461 55.2334 31.9991 57.1241 31.9991C58.7479 31.9991 60.1104 30.8652 60.4642 29.3473L65.2599 38.4069C65.4596 38.7774 65.8459 39.0084 66.2667 39.0084C66.6872 39.0084 67.0735 38.7774 67.2732 38.4069L70.7065 31.8779C70.38 31.952 70.0437 31.9991 69.6952 31.9991C67.1703 31.9991 65.1239 29.9524 65.1239 27.4278C65.1239 24.9031 67.1703 22.8565 69.6952 22.8565C71.6553 22.8565 73.3135 24.0963 73.9632 25.8296L81.2222 12.3484C81.2055 12.3487 81.1895 12.3521 81.1735 12.3554C81.1567 12.3589 81.1399 12.3624 81.1222 12.3624ZM63.9811 21.7136C62.0904 21.7136 60.5526 20.1756 60.5526 18.2852C60.5526 17.6536 61.0636 17.1423 61.6954 17.1423C62.327 17.1423 62.8383 17.6536 62.8383 18.2852C62.8383 18.9158 63.3504 19.428 63.9811 19.428C64.6114 19.428 65.1239 18.9158 65.1239 18.2852C65.1239 17.6536 65.6349 17.1423 66.2667 17.1423C66.8983 17.1423 67.4095 17.6536 67.4095 18.2852C67.4095 20.1756 65.8715 21.7136 63.9811 21.7136ZM69.6952 17.1423C69.6952 17.7736 70.2068 18.2852 70.838 18.2852C71.4689 18.2852 71.9808 17.7736 71.9808 17.1423C71.9808 16.5111 71.4689 15.9995 70.838 15.9995C70.2068 15.9995 69.6952 16.5111 69.6952 17.1423Z" fill="black"/>
<path id="Path_2" d="M69.6951 25.1421C68.435 25.1421 67.4094 26.1677 67.4094 27.4278C67.4094 28.6878 68.435 29.7134 69.6951 29.7134C70.9549 29.7134 71.9807 28.6878 71.9807 27.4278C71.9807 26.1677 70.9549 25.1421 69.6951 25.1421Z" fill="black"/>
<path id="Path_3" d="M84.1902 8.18041C85.0348 6.49088 84.3473 4.42725 82.6566 3.58025C78.2404 1.37169 71.9617 0 66.2699 0C60.5748 0 54.2938 1.37169 49.8775 3.58025C48.1856 4.42725 47.4969 6.48969 48.3431 8.1816C49.1698 9.82768 51.287 10.5431 52.9432 9.714C56.4196 7.97625 61.6483 6.85367 66.2654 6.85367C68.1237 6.85367 70.0781 7.04265 71.9807 7.37329V10.2854C71.9807 10.9166 72.4923 11.4282 73.1236 11.4282C73.7545 11.4282 74.2664 10.9166 74.2664 10.2854V7.85274C76.239 8.33368 78.0832 8.96164 79.5897 9.71519C81.2721 10.5524 83.3304 9.89643 84.1902 8.18041Z" fill="black"/>
</g>
</g>
</svg>
