<svg width="32" height="32" viewBox="0 0 32 32" fill="none" xmlns="http://www.w3.org/2000/svg">
<path d="M14.5303 24.3953C14.2864 24.6389 14.2864 25.0347 14.5303 25.2788C14.7747 25.5227 15.1702 25.5227 15.4139 25.2788C15.6583 25.0347 15.6583 24.6389 15.4139 24.3953C15.1702 24.1509 14.7747 24.1509 14.5303 24.3953Z" fill="black"/>
<path fill-rule="evenodd" clip-rule="evenodd" d="M25.8122 19.2749L30.5573 23.3098C32.2087 24.3948 32.4536 26.7278 31.0505 28.1311L29.3061 29.8752C26.632 32.5496 22.8539 32.3896 19.3022 31.092C15.7138 29.7808 11.7995 27.1206 8.28046 23.6016C4.84271 20.1638 2.2309 16.3525 0.926211 12.8701C-0.596983 8.80469 -0.236143 5.49023 1.96942 3.28442L3.81903 1.43481C3.81952 1.43457 3.82001 1.43408 3.82025 1.43359L4.33832 0.915528C5.74774 -0.493652 8.09613 -0.240966 9.17426 1.43164L12.601 6.1936C12.6079 6.20337 12.6144 6.21314 12.6208 6.22315C13.4133 7.46802 13.238 9.06641 12.1943 10.1101L9.60736 12.6978C9.42768 12.877 9.3747 13.1438 9.47162 13.3782C9.4892 13.4204 9.50165 13.4636 9.50946 13.5071C9.57514 13.7102 10.0732 15.1519 11.4548 16.9661C13.2665 19.3452 15.6664 21.1646 18.5878 22.373C18.8222 22.4697 19.0895 22.4167 19.2687 22.2373L21.8559 19.6504C22.8996 18.6069 24.498 18.4314 25.7429 19.2239C25.767 19.2393 25.7902 19.2563 25.8122 19.2749ZM29.7787 24.2883L25.0378 20.2568C24.2956 19.8059 23.3561 19.9175 22.7397 20.5342L21.9509 21.3228L30.0371 27.377L30.1664 27.2473C31.0139 26.4001 30.8605 24.9841 29.8478 24.3394C29.8237 24.324 29.8005 24.3069 29.7787 24.2883ZM8.13007 2.11841C8.13642 2.12842 8.14301 2.13843 8.14984 2.14795L11.5751 6.9082C12.0405 7.65308 11.9328 8.604 11.3105 9.22632L10.5461 9.99097L5.07538 1.94605L5.22211 1.79932C6.07294 0.948487 7.48773 1.10938 8.13007 2.11841ZM9.16425 22.7178C12.5573 26.1108 16.31 28.668 19.7309 29.918C22.3254 30.866 25.9391 31.4749 28.4223 28.9915L29.1442 28.2698L21.058 22.2156L20.1525 23.1213C19.6144 23.6592 18.8129 23.8188 18.11 23.5281C14.1103 21.8733 11.6642 19.354 10.3166 17.5317C9.40082 16.2935 8.4931 14.613 8.29584 13.8035C8.03388 13.113 8.19892 12.3376 8.72382 11.8137L9.64643 10.8906L4.17572 2.8457L2.85321 4.16846C0.536806 6.48462 1.16303 9.94043 2.09638 12.4316C3.33978 15.7505 5.84979 19.4036 9.16425 22.7178Z" fill="black"/>
<path d="M13.3574 22.9031C12.6972 22.3242 11.5554 21.3286 10.9541 20.71C9.47947 19.1946 7.93236 17.3577 7.01243 16.0305C6.8159 15.7468 6.4265 15.676 6.1428 15.8728C5.85911 16.0693 5.78856 16.4587 5.98509 16.7424C7.14525 18.4163 8.84984 20.3396 10.0581 21.5813C10.6929 22.2346 11.8445 23.239 12.5332 23.8428C12.7922 24.0698 13.187 24.0449 13.4153 23.7849C13.6428 23.5256 13.6169 23.1306 13.3574 22.9031Z" fill="black"/>
</svg>
